<?xml version="1.0" encoding="utf-8"?>
<!-- Generator: Adobe Illustrator 23.0.0, SVG Export Plug-In . SVG Version: 6.00 Build 0)  -->
<svg version="1.1" id="Layer_1" xmlns="http://www.w3.org/2000/svg" xmlns:xlink="http://www.w3.org/1999/xlink" x="0px" y="0px"
	 viewBox="0 0 165.5 44.6" style="enable-background:new 0 0 165.5 44.6;" xml:space="preserve">
<style type="text/css">
	.st0{fill:#F6A716;}
	.st1{enable-background:new    ;}
	.st2{fill:#FFFFFF;}
</style>
<title>logo</title>
<circle class="st0" cx="4.2" cy="35" r="1.7"/>
<circle class="st0" cx="2.5" cy="26.7" r="2.5"/>
<circle class="st0" cx="2.9" cy="17.9" r="2.9"/>
<circle class="st0" cx="6.7" cy="10.9" r="3.3"/>
<circle class="st0" cx="12.5" cy="5.8" r="3.3"/>
<circle class="st0" cx="20.9" cy="3.3" r="3.3"/>
<circle class="st0" cx="29.2" cy="2.5" r="2.5"/>
<circle class="st0" cx="35.9" cy="3.3" r="1.7"/>
<g class="st1">
	<path class="st2" d="M30.3,37h-2.2l-3.8-12.8c-0.2-0.6-0.4-1.3-0.6-2.1s-0.3-1.4-0.4-1.6c-0.2,1.1-0.5,2.4-0.9,3.8L18.7,37h-2.2
		L11.4,18h2.3l3,11.8c0.4,1.7,0.7,3.1,0.9,4.5c0.2-1.6,0.6-3.1,1-4.7L22.1,18h2.3l3.6,11.7c0.4,1.3,0.8,2.9,1.1,4.6
		c0.2-1.2,0.5-2.7,0.9-4.5l3-11.7h2.3L30.3,37z"/>
	<path class="st2" d="M49,37H38.4V18H49v2h-8.4v6.1h7.9v2h-7.9v7H49V37z"/>
	<path class="st2" d="M53.2,18h5.4c2.5,0,4.4,0.4,5.5,1.1c1.1,0.8,1.7,2,1.7,3.6c0,1.1-0.3,2.1-0.9,2.8c-0.6,0.7-1.5,1.2-2.8,1.4
		v0.1c2.9,0.5,4.3,2,4.3,4.6c0,1.7-0.6,3-1.7,4c-1.2,1-2.8,1.4-4.8,1.4h-6.6V18z M55.5,26.1h3.7c1.6,0,2.7-0.2,3.4-0.7s1-1.3,1-2.5
		c0-1.1-0.4-1.8-1.1-2.3c-0.8-0.5-2-0.7-3.7-0.7h-3.3V26.1z M55.5,28v7.1h4c1.5,0,2.7-0.3,3.5-0.9c0.8-0.6,1.2-1.5,1.2-2.8
		c0-1.2-0.4-2.1-1.2-2.6c-0.8-0.6-2-0.8-3.6-0.8H55.5z"/>
</g>
<g class="st1">
	<path class="st0" d="M85.9,27.3c0,3.1-0.9,5.6-2.6,7.2c-1.7,1.7-4.3,2.5-7.5,2.5h-5.3V18h5.9c3,0,5.4,0.8,7.1,2.5
		S85.9,24.4,85.9,27.3z M82.7,27.4c0-4.6-2.1-6.8-6.4-6.8h-2.7v13.8h2.2C80.4,34.4,82.7,32.1,82.7,27.4z"/>
	<path class="st0" d="M100.8,37H90V18h10.8v2.6h-7.7v5.2h7.2v2.6h-7.2v6h7.7V37z"/>
	<path class="st0" d="M115.9,31.9c0,1.7-0.6,3-1.8,4c-1.2,1-2.9,1.4-5.1,1.4s-3.9-0.3-5.3-1v-2.9c0.9,0.4,1.8,0.7,2.8,1
		s1.9,0.4,2.7,0.4c1.2,0,2.1-0.2,2.7-0.7c0.6-0.5,0.9-1.1,0.9-1.9c0-0.7-0.3-1.3-0.8-1.8s-1.7-1.1-3.3-1.8c-1.7-0.7-3-1.5-3.7-2.4
		s-1.1-2-1.1-3.3c0-1.6,0.6-2.8,1.7-3.8c1.1-0.9,2.6-1.4,4.5-1.4c1.8,0,3.6,0.4,5.4,1.2l-1,2.5c-1.7-0.7-3.2-1.1-4.5-1.1
		c-1,0-1.8,0.2-2.3,0.7s-0.8,1-0.8,1.7c0,0.5,0.1,0.9,0.3,1.3c0.2,0.4,0.6,0.7,1,1c0.5,0.3,1.3,0.7,2.6,1.2c1.4,0.6,2.4,1.1,3.1,1.6
		c0.7,0.5,1.1,1.1,1.4,1.7C115.8,30.3,115.9,31,115.9,31.9z"/>
	<path class="st0" d="M119.6,37V18h3.1V37H119.6z"/>
	<path class="st0" d="M135.6,26.7h7v9.6c-1.1,0.4-2.2,0.6-3.3,0.8c-1.1,0.2-2.2,0.2-3.4,0.2c-2.9,0-5.1-0.9-6.7-2.6
		s-2.3-4.1-2.3-7.2c0-3.1,0.9-5.5,2.6-7.2c1.8-1.7,4.2-2.6,7.3-2.6c2,0,3.9,0.4,5.7,1.1l-1.1,2.6c-1.5-0.7-3.1-1.1-4.6-1.1
		c-2,0-3.6,0.6-4.8,1.9c-1.2,1.3-1.8,3-1.8,5.2c0,2.3,0.5,4.1,1.6,5.3c1.1,1.2,2.6,1.8,4.6,1.8c1,0,2.1-0.1,3.2-0.4v-4.9h-4V26.7z"
		/>
	<path class="st0" d="M163,37h-3.8l-9.4-15.2h-0.1l0.1,0.8c0.1,1.6,0.2,3.1,0.2,4.4V37h-2.8V18h3.8l9.3,15.1h0.1
		c0-0.2-0.1-0.9-0.1-2.2s-0.1-2.2-0.1-2.9V18h2.9V37z"/>
</g>
</svg>
