<svg id="Layer_1" data-name="Layer 1" xmlns="http://www.w3.org/2000/svg" viewBox="0 0 438.1 89.27"><defs><style>.cls-1{fill:#f2f2f2;}</style></defs><path class="cls-1" d="M147.26,79c-5.53,0-10.68.06-15.82-.06a2.76,2.76,0,0,1-1.87-1.44c-1.61-3.37-3.1-6.79-4.55-10.23a2.37,2.37,0,0,0-2.54-1.8c-6.91.08-13.83,0-20.74.1a3.29,3.29,0,0,0-2.29,1.55c-1,1.89-1.73,4-2.6,6h-4c1.51-3.51,2.91-6.92,4.48-10.24.2-.42,1.3-.58,2-.58,8.41,0,16.83-.07,25.24,0a3.2,3.2,0,0,1,2.31,1.54c1.57,3.11,3,6.29,4.28,9.54a3,3,0,0,0,3.54,2.22c2.29-.17,4.61,0,7.24,0-2.38-5.44-4.59-10.52-6.82-15.59-6-13.6-12-27.19-18-40.76-.37-.82-1.34-1.37-2-2-.62.65-1.48,1.19-1.82,2q-12,27-23.79,54c-.3.68-.54,1.37-1,2.43,3.54,0,6.83.05,10.12-.06.43,0,1-.74,1.23-1.26.89-2,1.68-4,2.55-6.08,5.89,0,11.81-.12,17.71.11,1,0,1.94,1.6,2.91,2.45l-.49.72c-5.21,0-10.42.09-15.63,0-1.84,0-2.8.43-3.51,2.22-2,5.18-2.14,5.15-7.68,5.15l-11.75,0c-.15,0-.29-.13-.62-.27l9.08-20.37c6.27-14,12.57-28,18.78-42,.67-1.5,1.43-2.29,3.14-2s3.57-.72,4.72,1.88C128.23,36.81,137.65,57.59,147.26,79Z"/><path class="cls-1" d="M282.5,73.06c1.44-3.31,2.72-6.46,4.18-9.51a2.73,2.73,0,0,1,2-1.25c8.5-.08,17,0,25.49-.09A2.36,2.36,0,0,1,316.69,64c1.42,3.36,2.87,6.72,4.51,10a3.32,3.32,0,0,0,2.32,1.53c2.55.2,5.13.07,8.06.07-1.82-4.18-3.48-8-5.18-11.89q-9.86-22.32-19.76-44.61c-.34-.75-1.2-1.74-1.84-1.75s-1.53,1-1.86,1.7q-12,27.19-24,54.45c-.26.59-.44,1.21-.76,2.1,3.39,0,6.54.07,9.69-.06a2.25,2.25,0,0,0,1.63-1.37c1-5.51,4.4-6.61,9.4-6.07,4,.43,8,.09,12.09.09.43,1,.86,1.92,1.48,3.28-5.32,0-10.28.16-15.23-.06-2.46-.11-3.69.61-4.55,3-1.64,4.48-1.79,4.43-6.62,4.43H272.85c2.59-5.82,5-11.33,7.49-16.82,6.85-15.3,13.75-30.58,20.52-45.91.76-1.71,1.72-2.18,3.36-2s3.36-.64,4.46,1.85c9.08,20.49,18.33,40.89,27.53,61.32.17.38.33.76.59,1.36-.74.06-1.36.16-2,.16-3.33,0-6.67,0-10,0-5,.09-5,.12-6.94-4.34-1.07-2.42-2.23-4.82-3.19-7.29a2.33,2.33,0,0,0-2.56-1.74c-6.91.07-13.83,0-20.74.11a3.64,3.64,0,0,0-2.26,1.59,13.59,13.59,0,0,0-1.32,2.95C286.45,73.31,286.45,73.31,282.5,73.06Z"/><path class="cls-1" d="M263.38,41.32a20.33,20.33,0,0,0-.18-13.93c-2.17-5.89-6.9-8.8-12.83-9.16-7-.42-14-.1-21.14-.1V39.07c6.11,0,12.19.08,18.26,0,3-.06,4.45-1.6,4.52-4.23.07-2.95-1.64-4.95-4.67-5.06-3.9-.14-7.81,0-11.92,0v6.37h-3.26V26.69c5.8,0,11.61-.28,17.37.11,3.64.24,6,4.35,5.7,8.73-.24,3.95-2.46,6.58-6.34,6.68-7.64.19-15.29.06-23.07.06v-28c9.21.31,18.5,0,27.6,1.12,8.47,1.06,13.6,8,14.17,16.6.31,4.81-.1,9.45-2.48,13.78a3,3,0,0,0,.12,2c1,3.31,2,6.6,3,9.9-.43,3.12-.85,6.24-1.28,9.36-.44.89-.87,1.79-1.31,2.68l-3,3.9c-3.45,2.43-7.07,4.46-11.41,4.76l-.57-3.09c6.56-1.16,11.92-4,13.47-11,1.36-6.25,2-12.54-3.39-17Z"/><path class="cls-1" d="M365,26.06h21.91V17.5H347.74V20h36v3.44H344.47v-9.4h45.76V29.47h-22V72.62H365Z"/><path class="cls-1" d="M17.34,25.63c-2.52,16.49-5.05,33-7.6,49.63h9.37l3.17-20.39c1.45,2.62,3,4.58,2.37,7.61-1.1,5.36-1.77,10.81-2.64,16.34H5.8c3.25-21.42,6.48-42.68,9.82-64.7L45.77,70.9l9.15-17.29c.92,3.11,1,5.71-.63,8.52-3,5.06-5.56,10.39-8.49,15.94L17.91,25.59Z"/><path class="cls-1" d="M63.71,24.47c.82,5.24,1.62,10.22,2.38,15.2,1.72,11.25,3.46,22.5,5.08,33.77.33,2.26,1.52,2.15,3.38,1.76-.9-6-1.77-11.83-2.67-17.71C70,45,68.06,32.52,66.08,20.05a10,10,0,0,0-1.21-2.59c-.8.69-1.89,1.21-2.36,2.08C57.33,29.1,52.25,38.71,47.14,48.3c-.35.65-.73,1.27-1.09,1.89-2-2-1.81-3.86-.51-6.21,5-9.08,9.83-18.27,14.58-27.49,1-1.93,2.08-3,4.36-2.62a29.09,29.09,0,0,0,4.2,0C71.94,35.51,75.2,57,78.48,78.75H68.66q-2-13.09-4-26.3c-1-6.73-2.06-13.47-3-20.21C61,28.32,61.05,28.31,63.71,24.47Z"/><path class="cls-1" d="M408.91,66.35V57.59h3.28v5.24H438.1v16H396.26V14.37h3.22V75.48h35.36V66.35Z"/><path class="cls-1" d="M430.52,50.7V41.45H409v-21h22.07v3.22H412.34V38H434V53.89H405.82V69.12h25.75v3.46h-29V50.7Z"/><path class="cls-1" d="M192.13,78.74l-4.52.37-6-.37,2.52-3,4.57-.21V72.84c0-8-.07-16,.06-24a8.79,8.79,0,0,1,1.4-4.55c5.51-8.12,11.18-16.12,16.79-24.17.51-.73,1-1.49,1.54-2.34-2.15-.81-3.43-.24-4.63,1.55-5.67,8.41-11.5,16.71-17.18,25.1a6.59,6.59,0,0,0-1.07,3.41c-.09,8.24,0,16.48,0,24.9h-3.36V63.35c0-5.5-.05-11,0-16.49a6.25,6.25,0,0,1,.93-3.2q9.61-14.11,19.41-28.11a3.26,3.26,0,0,1,2.06-1.4c3.39-.15,6.8-.07,10.59-.07l-13.39,19.2c-3,4.23-5.9,8.45-8.8,12.71a4.28,4.28,0,0,0-.86,2.21c0,9,0,18,0,27Z"/><path class="cls-1" d="M115.06,22.27l22.7,50.59c-2.5.64-3.84.2-4.91-2.32-5.34-12.6-10.95-25.08-16.47-37.61-.36-.81-.77-1.6-1.37-2.85-3.8,9-7.41,17.68-11.13,26.53h16.3l-5.11-10.78c-1.3,3.13-2.36,5.7-3.44,8.29H108c2.3-5.54,4.53-10.94,7-16.91l10.15,22.34H98.46C104,47.23,109.36,35.06,115.06,22.27Z"/><path class="cls-1" d="M327.47,72.84c-2.8.88-4-.12-5-2.45-5.38-12.59-11-25.09-16.47-37.62-.33-.75-.72-1.49-1.3-2.69-3.8,9-7.44,17.68-11.16,26.53h16.31l-5.07-10.79a46.8,46.8,0,0,0-2.35,5.77c-.66,2.51-2.15,3-4.65,2.38,2.28-5.49,4.55-10.95,7-16.77,3.47,7.66,6.74,14.89,10.11,22.35H288.18l16.6-37.28C312.45,39.37,319.94,56.07,327.47,72.84Z"/><path class="cls-1" d="M362,75.36h9.09v-43l3.34-.14V78.8H358.69V29.49H344.5V26.22H362Z"/><path class="cls-1" d="M18.93,14.15c2.41-.56,3.81-.23,5,2C30.57,29,37.42,41.72,44.2,54.47c.43.79.89,1.56,1.54,2.7L58.68,33.32c2.38,15.58,4.65,30.48,6.94,45.52H62.27c-1.75-11.41-3.5-22.79-5.37-35C53,51,49.45,57.54,45.7,64.45,36.73,47.58,27.87,30.94,18.93,14.15Z"/><path class="cls-1" d="M402.64,47.54V14.31h35V30h-22V26.75h18.73v-9h-28.6V44.14h21.35v3.4Z"/><path class="cls-1" d="M258.23,62.2c1.88-8-2.39-13.64-10.39-13.72-6.41-.07-12.82,0-19.23,0H225.8V45.08h12.69c3.08,0,6.16,0,9.24,0,6.51,0,10.52-4,10.6-10.58.08-6.28-4.18-10.5-10.65-10.53l-15,0a1.47,1.47,0,0,1-.52-.23v-3c6.37,0,12.69-.27,19,.07,5.54.3,10.13,5.35,10.41,11.28.14,3-.63,6.05-1,9.07l-5,6c5.77,4.54,7.77,10.28,5.71,16.65a13,13,0,0,1-11.71,8.87c-.16-1.07-.33-2.14-.5-3.21C253.53,68.74,257,66.92,258.23,62.2Z"/><path class="cls-1" d="M160.44,14.08c3.8,0,7.28,0,10.75.05a2.3,2.3,0,0,1,1.56.92c3.36,4.63,6.66,9.3,10,14L180.69,32c-3-4.28-6.06-8.32-8.84-12.52-1.2-1.81-2.52-2.47-4.85-1.75l13.41,19,8-11.68c2-2.87,4.12-5.65,5.81-8.69,1.35-2.41,3.13-2.48,5.6-2.06L180.48,42.62C173.8,33.12,167.23,23.76,160.44,14.08Z"/><path class="cls-1" d="M250.62,75.28l.57,3.09-12.82.39-3.72.09h-5.06l-1.93,0h-4.55l-3.61-.23c-.1-2.16-.21-4.31-.31-6.46l0-5.51c0-3.82.13-7.65.13-11.47q0-18.86,0-37.72V14.61h3.44V75.28Z"/><path class="cls-1" d="M42.66,78.68c-2.6.8-3.94,0-5.1-2.24C32.2,66,26.64,55.75,20.83,44.8c-1.55,9.77-3,18.93-4.46,28.19H13C15,60.29,17,47.7,19,34.3,27.14,49.53,34.89,64.08,42.66,78.68Z"/><path class="cls-1" d="M181.6,78.74l-2.5.35-3.41-.3V69.51c0-5.66-.2-11.34.07-17a14.92,14.92,0,0,0-3.19-10.08C165.89,33.22,159.5,23.8,153,14.38c2.58-.86,4.17-.09,5.66,2.1C165,25.83,171.59,35,178,44.36a9.05,9.05,0,0,1,1.35,4.82c.08,8.49,0,17-.09,25.48a5.78,5.78,0,0,0,.27,1h4.63Z"/><path class="cls-1" d="M225.82,55.64c-.07-.65-.15-1.31-.22-2s.14-1.45.22-2.26c7.73,0,15.39-.1,23.05.08,1.42,0,2.81,1.15,4.21,1.77l-3,1.92H229v6.17c-.5-.79-1-1.55-1.49-2.37C226.88,57.89,226.37,56.76,225.82,55.64Z"/><path class="cls-1" d="M250.12,55.18l3-1.92,2.64,5.41c-.65,5.66-2.35,7.39-8.11,8.23l-.49-.22c-.34-1-.67-2-1-3l4-1C253,60.8,253,57.6,250.12,55.18Z"/><path class="cls-1" d="M247.62,69.16l1.49.22c.17,1.07.34,2.14.5,3.21l-18,.06c0-1.09,0-2.19,0-3.29l1-.19Z"/><path class="cls-1" d="M231.64,69.36c0,1.1,0,2.2,0,3.29h-5.8v-17c.55,1.12,1.06,2.25,1.65,3.34.45.82,1,1.58,1.49,2.37l.2,1.32v6.47Z"/><path class="cls-1" d="M235.52,58.65c-.09,1.55-.17,3.1-.28,5.08h10.87c.34,1,.67,2,1,3l-14.48.19-.72-5.22c.07-1.3.13-2.61.24-4.77Z"/></svg>