<svg id="Layer_1" data-name="Layer 1" xmlns="http://www.w3.org/2000/svg" viewBox="0 0 44 80"><defs><style>.cls-1{fill:#09c;}.cls-2,.cls-3{fill:#fff;}.cls-3{opacity:0.25;isolation:isolate;}</style></defs><title>icon-responsive</title><path class="cls-1" d="M41.57,0H2.43A2.43,2.43,0,0,0,0,2.43H0V77.57A2.43,2.43,0,0,0,2.43,80H41.57A2.43,2.43,0,0,0,44,77.57h0V2.43A2.43,2.43,0,0,0,41.57,0ZM42,68H2V9H42Z"/><path class="cls-2" d="M22,72a2,2,0,1,1-2,2,2,2,0,0,1,2-2m0-1a3,3,0,1,0,3,3A3,3,0,0,0,22,71Z"/><rect class="cls-2" x="19" y="6" width="6" height="1"/><circle class="cls-3" cx="22" cy="6" r="1"/></svg>