<svg id="icon" xmlns="http://www.w3.org/2000/svg" viewBox="0 0 30.83 30.83"><defs><style>.cls-1{fill:#1ab2e8;}.cls-2{fill:#fff;}</style></defs><title>icon-twitter</title><circle class="cls-1" cx="15.41" cy="15.41" r="15.41"/><path id="twitter-4-icon" class="cls-2" d="M56.76,47.33a9,9,0,0,1-13.84,8A6.4,6.4,0,0,0,47.6,54a3.17,3.17,0,0,1-3-2.2,3.13,3.13,0,0,0,1.43-.05,3.17,3.17,0,0,1-2.54-3.14A3.15,3.15,0,0,0,45,49a3.16,3.16,0,0,1-1-4.22,9,9,0,0,0,6.52,3.3,3.16,3.16,0,0,1,5.39-2.88,6.12,6.12,0,0,0,2-.77,3.19,3.19,0,0,1-1.39,1.75,5.79,5.79,0,0,0,1.81-.5A6.29,6.29,0,0,1,56.76,47.33Z" transform="translate(-35.17 -35.11)"/></svg>